<svg width="238.8" height="169.9" xmlns="http://www.w3.org/2000/svg" xmlns:xlink="http://www.w3.org/1999/xlink" overflow="hidden"><defs><marker markerUnits="strokeWidth" orient="auto" id="id01"><path d="M0 0 5-5-12.5 0 5 5Z" stroke="#000000" stroke-width="1.33333" transform="matrix(-0.4 0 0 -0.4 -4 0)"/></marker></defs><g transform="translate(-828.174 1124.13)"><text color="#000000" stroke-width="0.55" fill="#19AEFF" font-family="Georgia" font-style="italic" font-size="21.3" x="871.2" y="-1087.3">Probability</text><text color="#000000" stroke-width="0.55" fill="#19AEFF" font-family="Georgia" font-style="italic" font-size="21.3" x="982.1" y="-1109">Outcome</text><g transform="matrix(0.533157 0.135069 -0.135069 0.533157 865.844 -484.628)"><path d="M-163.6-1083.4C-162.3-1072-154.2-1062.2-142.8-1059.9-124.7-1054.4-104.4-1060-87.3-1050.9-80.4-1045.8-91.6-1045.1-94.8-1049.4-115.2-1055.7-138.9-1048.7-157.3-1061.9-162.1-1065.7-172.8-1080.3-164.7-1083.2L-164.1-1083.4Z" color="#000000" stroke-width="3" fill="#19AEFF"/><path d="M-88.9-1062.4C-90.3-1056.7-79-1042.5-88.5-1045.8-90.9-1050-97.8-1062.3-88.9-1062.4Z" color="#000000" stroke-width="3" fill="#19AEFF"/><path d="M-103.1-1047.3C-98.4-1048.2-80.4-1050.9-85-1043.7-89.8-1044.6-101-1043-104.1-1044-103.8-1045.1-103.4-1046.2-103.1-1047.3Z" color="#000000" stroke-width="3" fill="#19AEFF"/></g><g transform="matrix(0.527895 0.15436 -0.15436 0.527895 928.552 -497.914)"><g transform="matrix(0.9943 0.106619 -0.106619 0.9943 -114.035 1.30435)"><path d="M-157-1092.7C-158.7-1081.4-153.5-1069.7-143-1064.5-127-1054.5-105.9-1054.6-91.8-1041.3-86.5-1034.6-97.5-1036.8-99.4-1041.8-117.4-1053.2-142.1-1052.7-156.4-1070.2-160-1075.2-166.5-1092-157.9-1092.7-158.6-1092.7-156.5-1092.7-156.9-1092.7Z" color="#000000" stroke-width="3" fill="#19AEFF"/><path d="M-90.3-1052.8C-93.1-1047.7-86-1031-94.2-1036.7-95.5-1041.8-98.8-1054.5-90.3-1052.8Z" color="#000000" stroke-width="3" fill="#19AEFF"/><path d="M-108-1041.9C-103.3-1041.5-85.1-1039.4-91.5-1033.7-95.9-1035.8-107.1-1037.3-109.8-1039-109.2-1040-108.6-1041-108-1041.9Z" color="#000000" stroke-width="3" fill="#19AEFF"/></g></g><g transform="matrix(0.545731 0.068394 -0.068394 0.545731 909.029 -443.371)"><path d="M-163.6-1083.4C-162.3-1072-154.2-1062.2-142.8-1059.9-124.7-1054.4-104.4-1060-87.3-1050.9-80.4-1045.8-91.6-1045.1-94.8-1049.4-115.2-1055.7-138.9-1048.7-157.3-1061.9-162.1-1065.7-172.8-1080.3-164.7-1083.2L-164.1-1083.4Z" color="#000000" stroke-width="3" fill="#19AEFF"/><path d="M-88.9-1062.4C-88.9-1061.8-88.7-1061.3-88.6-1060.7-88.6-1060-88.4-1059.4-88.3-1058.8-88.2-1058.1-88.1-1057.3-88-1056.6-87.9-1055.9-87.7-1055.1-87.5-1054.4-87.3-1053.7-87-1053-86.8-1052.3-86.5-1051.6-86.2-1050.9-85.8-1050.2-85.5-1049.5-85.1-1048.9-84.6-1048.3-84.2-1047.8-83.9-1047.4-83.4-1047-83.4-1047-87-1044.1-87-1044.1L-87-1044.1C-87.5-1044.6-88-1045.2-88.4-1045.8-88.9-1046.5-89.4-1047.2-89.8-1048-90.2-1048.8-90.6-1049.5-90.9-1050.3-91.2-1051.1-91.5-1051.9-91.8-1052.7-92-1053.5-92.2-1054.3-92.4-1055.2-92.6-1056-92.7-1056.7-92.7-1057.5-92.7-1058.2-92.9-1058.8-93-1059.5-93-1060-93.1-1060.6-93.2-1061.1-93.2-1061.1-88.7-1062.5-88.7-1062.5Z" color="#000000" stroke-width="3" fill="#19AEFF"/><path d="M-103.1-1047.3C-102.5-1047.4-102-1047.5-101.4-1047.6-100.6-1047.7-99.9-1047.8-99.1-1047.9-98.2-1048-97.3-1048.2-96.3-1048.3-95.3-1048.4-94.3-1048.5-93.3-1048.6-92.3-1048.7-91.3-1048.6-90.3-1048.5-89.4-1048.4-88.4-1048.2-87.5-1048-86.6-1047.8-85.7-1047.6-84.7-1047.3-84.1-1047.2-83.5-1047-82.9-1046.8-82.9-1046.8-85.5-1042.9-85.5-1042.9L-85.5-1042.9C-86.1-1043.1-86.6-1043.2-87.2-1043.3-88.1-1043.5-88.9-1043.7-89.8-1043.9-90.7-1044.1-91.5-1044.2-92.4-1044.3-93.3-1044.3-94.2-1044.3-95.1-1044.2-96-1044.1-97-1044-97.9-1043.9-98.8-1043.8-99.7-1043.6-100.6-1043.5-101.3-1043.4-102.1-1043.3-102.8-1043.1-103.3-1043-103.9-1043-104.4-1042.8-104.4-1042.8-103-1047.3-103-1047.3Z" color="#000000" stroke-width="3" fill="#19AEFF"/></g><text color="#000000" stroke-width="0.55" fill="#19AEFF" font-family="Georgia" font-style="italic" font-size="21.3" x="828.5" y="-1049.5">Branch</text><circle cx="916" cy="-1006.6" r="4.34938" color="#000000" stroke="#0084C8" stroke-width="1.8" stroke-linejoin="round" fill="none"/><path d="M923.9-1009.3 1011.3-1047.3" stroke="#000000" stroke-width="1.43" fill="none" marker-end="url(#id01)"/><path d="M923.4-1002.9 1010.8-964.9" stroke="#000000" stroke-width="1.43" fill="none" marker-end="url(#id01)"/><text color="#000000" stroke-width="0.55" fill="#FF6600" font-family="Georgia" font-size="18.7" x="1017.3" y="-1043.1">Head</text><text color="#000000" stroke-width="0.55" fill="#0084C8" font-family="Georgia" font-size="18.7" x="1018" y="-956">Tail</text><text color="#000000" stroke-width="0.55" fill="#FF6600" font-family="Arial" font-size="18.7" x="951.8" y="-1034.7">0.5</text><text color="#000000" stroke-width="0.55" fill="#0084C8" font-family="Arial" font-size="18.7" x="952.1" y="-961.6">0.5</text></g></svg>